<svg width="16" height="17" viewBox="0 0 16 17" fill="none" xmlns="http://www.w3.org/2000/svg">
<g clip-path="url(#clip0_103_30856)">
<path d="M9.42885 4.70703V1.27846C9.42885 1.12691 9.36865 0.981562 9.26148 0.874399C9.15432 0.767235 9.00897 0.707031 8.85742 0.707031H7.14314C6.99158 0.707031 6.84624 0.767235 6.73908 0.874399C6.63191 0.981562 6.57171 1.12691 6.57171 1.27846V4.70703C6.04421 5.05766 5.61164 5.53333 5.31254 6.09166C5.01343 6.64999 4.85709 7.27363 4.85742 7.90703V14.4213C4.85742 14.7244 4.97783 15.0151 5.19216 15.2294C5.40649 15.4438 5.69718 15.5642 6.00028 15.5642H10.0003C10.3034 15.5642 10.5941 15.4438 10.8084 15.2294C11.0227 15.0151 11.1431 14.7244 11.1431 14.4213V7.90703C11.1435 7.27363 10.9871 6.64999 10.688 6.09166C10.3889 5.53333 9.95635 5.05766 9.42885 4.70703Z" stroke="#990F02" stroke-width="0.75" stroke-linecap="round" stroke-linejoin="round"/>
<path d="M4.85742 8.70703H11.1431" stroke="#990F02" stroke-width="0.75" stroke-linecap="round" stroke-linejoin="round"/>
<path d="M11.1431 12.707H4.85742" stroke="#990F02" stroke-width="0.75" stroke-linecap="round" stroke-linejoin="round"/>
</g>
<defs>
<clipPath id="clip0_103_30856">
<rect width="16" height="16" fill="white" transform="translate(0 0.134766)"/>
</clipPath>
</defs>
</svg>
