<svg width="32" height="33" viewBox="0 0 32 33" fill="none" xmlns="http://www.w3.org/2000/svg">
<g clip-path="url(#clip0_103_31757)">
<path d="M9.71415 16.1353C10.3453 16.1353 10.857 15.6236 10.857 14.9925C10.857 14.3613 10.3453 13.8496 9.71415 13.8496C9.08296 13.8496 8.57129 14.3613 8.57129 14.9925C8.57129 15.6236 9.08296 16.1353 9.71415 16.1353Z" stroke="#990F02" stroke-linecap="round" stroke-linejoin="round"/>
<path d="M17.1429 16.1353C17.774 16.1353 18.2857 15.6236 18.2857 14.9925C18.2857 14.3613 17.774 13.8496 17.1429 13.8496C16.5117 13.8496 16 14.3613 16 14.9925C16 15.6236 16.5117 16.1353 17.1429 16.1353Z" stroke="#990F02" stroke-linecap="round" stroke-linejoin="round"/>
<path d="M24.5716 16.1353C25.2028 16.1353 25.7144 15.6236 25.7144 14.9925C25.7144 14.3613 25.2028 13.8496 24.5716 13.8496C23.9404 13.8496 23.4287 14.3613 23.4287 14.9925C23.4287 15.6236 23.9404 16.1353 24.5716 16.1353Z" stroke="#990F02" stroke-linecap="round" stroke-linejoin="round"/>
<path d="M10.2854 28.7059L1.14258 30.9916L3.42829 24.1345V3.56306C3.42829 2.95685 3.66911 2.37547 4.09776 1.94681C4.52642 1.51816 5.1078 1.27734 5.71401 1.27734H28.5711C29.1774 1.27734 29.7587 1.51816 30.1874 1.94681C30.616 2.37547 30.8569 2.95685 30.8569 3.56306V26.4202C30.8569 27.0264 30.616 27.6078 30.1874 28.0364C29.7587 28.4651 29.1774 28.7059 28.5711 28.7059H10.2854Z" stroke="#990F02" stroke-linecap="round" stroke-linejoin="round"/>
</g>
<defs>
<clipPath id="clip0_103_31757">
<rect width="32" height="32" fill="white" transform="translate(0 0.134766)"/>
</clipPath>
</defs>
</svg>
