<svg width="32" height="33" viewBox="0 0 32 33" fill="none" xmlns="http://www.w3.org/2000/svg">
<g clip-path="url(#clip0_103_31117)">
<path d="M8.38913 1.27739C7.82407 1.27396 7.27776 1.47996 6.85566 1.85564C6.43355 2.23131 6.16556 2.75003 6.10342 3.31167C5.85199 5.73453 5.71484 9.39167 5.71484 10.4202C5.71484 16.4088 10.2863 19.5631 16.0006 19.5631C21.7148 19.5631 26.2863 16.4088 26.2863 10.4202C26.2863 9.39167 26.1491 5.84881 25.8977 3.31167C25.8356 2.75003 25.5676 2.23131 25.1455 1.85564C24.7233 1.47996 24.177 1.27396 23.612 1.27739H8.38913Z" stroke="#990F02" stroke-width="1.5" stroke-linecap="round" stroke-linejoin="round"/>
<path d="M16 19.5625V30.9911" stroke="#990F02" stroke-width="1.5" stroke-linecap="round" stroke-linejoin="round"/>
<path d="M11.4297 30.9922H20.5725" stroke="#990F02" stroke-width="1.5" stroke-linecap="round" stroke-linejoin="round"/>
</g>
<defs>
<clipPath id="clip0_103_31117">
<rect width="32" height="32" fill="white" transform="translate(0 0.134766)"/>
</clipPath>
</defs>
</svg>
