<svg width="16" height="17" viewBox="0 0 16 17" fill="none" xmlns="http://www.w3.org/2000/svg">
<g clip-path="url(#clip0_103_30851)">
<path d="M3.01547 6.67937C2.18276 6.67937 1.472 6.38497 0.8832 5.79617C0.2944 5.20737 0 4.49626 0 3.66284C0 2.83084 0.2944 2.12044 0.8832 1.53164C1.472 0.942838 2.18276 0.648438 3.01547 0.648438C3.84818 0.648438 4.55893 0.942838 5.14773 1.53164C5.73653 2.12044 6.03093 2.83119 6.03093 3.6639C6.03093 4.49662 5.73653 5.20737 5.14773 5.79617C4.55893 6.38497 3.84818 6.67937 3.01547 6.67937ZM3.0144 5.6127C3.55484 5.6127 4.01493 5.42319 4.39467 5.04417C4.7744 4.66515 4.96427 4.20542 4.96427 3.66497C4.96427 3.12453 4.77476 2.66408 4.39573 2.28364C4.01671 1.90319 3.55698 1.71368 3.01653 1.7151C2.47609 1.71653 2.016 1.90568 1.63627 2.28257C1.25653 2.66159 1.06667 3.12133 1.06667 3.66177C1.06667 4.20222 1.25618 4.66266 1.6352 5.0431C2.01351 5.42213 2.47324 5.61164 3.0144 5.61164M11.9381 15.602C11.1061 15.602 10.3954 15.3076 9.80587 14.7188C9.21778 14.13 8.92373 13.4193 8.92373 12.5866C8.92373 11.7539 9.21778 11.0431 9.80587 10.4543C10.394 9.86551 11.1051 9.5711 11.9392 9.5711C12.7733 9.5711 13.4837 9.86551 14.0704 10.4543C14.6571 11.0431 14.9515 11.7539 14.9536 12.5866C14.9557 13.4193 14.6613 14.13 14.0704 14.7188C13.4795 15.3076 12.7687 15.602 11.9381 15.602ZM11.9381 14.5354C12.4786 14.5354 12.9387 14.3459 13.3184 13.9668C13.6974 13.5885 13.8869 13.1288 13.8869 12.5876C13.8869 12.0465 13.6978 11.5864 13.3195 11.2074C12.9412 10.8284 12.4814 10.6385 11.9403 10.6378C11.3991 10.6371 10.9387 10.8266 10.5589 11.2063C10.1799 11.5846 9.9904 12.0444 9.9904 12.5855C9.9904 13.1267 10.1796 13.5867 10.5579 13.9658C10.9362 14.3448 11.397 14.5347 11.9381 14.5354ZM0.5824 15.0196C0.482844 14.9201 0.433067 14.7964 0.433067 14.6484C0.433067 14.5005 0.482844 14.3796 0.5824 14.2858L13.6576 1.21057C13.7572 1.11102 13.8763 1.06444 14.0149 1.07084C14.1529 1.07795 14.2716 1.13128 14.3712 1.23084C14.4708 1.33039 14.5205 1.45377 14.5205 1.60097C14.5205 1.74817 14.4708 1.86942 14.3712 1.9647L1.29707 15.0399C1.1968 15.1395 1.07769 15.1857 0.939733 15.1786C0.801067 15.1722 0.681956 15.1188 0.5824 15.0186" fill="#990F02"/>
</g>
<defs>
<clipPath id="clip0_103_30851">
<rect width="16" height="16" fill="white" transform="translate(0 0.134766)"/>
</clipPath>
</defs>
</svg>
