<svg width="32" height="33" viewBox="0 0 32 33" fill="none" xmlns="http://www.w3.org/2000/svg">
<path d="M12.5712 12.707H5.71401C4.50159 12.707 3.33883 13.1887 2.48152 14.046C1.62421 14.9033 1.14258 16.066 1.14258 17.2785V26.4213H4.57115" stroke="#990F02" stroke-width="1.5" stroke-linecap="round" stroke-linejoin="round"/>
<path d="M28.5703 26.4205H30.856V10.4205C30.856 9.81427 30.6152 9.23289 30.1866 8.80424C29.7579 8.37558 29.1765 8.13477 28.5703 8.13477H14.856C14.2498 8.13477 13.6684 8.37558 13.2398 8.80424C12.8111 9.23289 12.5703 9.81427 12.5703 10.4205V23.4033" stroke="#990F02" stroke-width="1.5" stroke-linecap="round" stroke-linejoin="round"/>
<path d="M13.7148 26.4199H19.4291" stroke="#990F02" stroke-width="1.5" stroke-linecap="round" stroke-linejoin="round"/>
<path d="M9.14174 30.9925C11.6665 30.9925 13.7132 28.9458 13.7132 26.421C13.7132 23.8963 11.6665 21.8496 9.14174 21.8496C6.61701 21.8496 4.57031 23.8963 4.57031 26.421C4.57031 28.9458 6.61701 30.9925 9.14174 30.9925Z" stroke="#990F02" stroke-width="1.5" stroke-linecap="round" stroke-linejoin="round"/>
<path d="M23.9992 30.9925C26.5239 30.9925 28.5706 28.9458 28.5706 26.421C28.5706 23.8963 26.5239 21.8496 23.9992 21.8496C21.4744 21.8496 19.4277 23.8963 19.4277 26.421C19.4277 28.9458 21.4744 30.9925 23.9992 30.9925Z" stroke="#990F02" stroke-width="1.5" stroke-linecap="round" stroke-linejoin="round"/>
</svg>
