<svg width="32" height="33" viewBox="0 0 32 33" fill="none" xmlns="http://www.w3.org/2000/svg">
<g clip-path="url(#clip0_103_31139)">
<path d="M27.4283 17.2771V12.7056C27.4283 12.0994 27.1875 11.518 26.7588 11.0894C26.3302 10.6607 25.7488 10.4199 25.1426 10.4199H3.42829C2.82208 10.4199 2.2407 10.6607 1.81205 11.0894C1.38339 11.518 1.14258 12.0994 1.14258 12.7056V28.7056C1.14258 29.3118 1.38339 29.8932 1.81205 30.3219C2.2407 30.7505 2.82208 30.9913 3.42829 30.9913H25.1426C25.7488 30.9913 26.3302 30.7505 26.7588 30.3219C27.1875 29.8932 27.4283 29.3118 27.4283 28.7056V22.9913" stroke="#990F02" stroke-width="1.5" stroke-linecap="round" stroke-linejoin="round"/>
<path d="M8.77734 4.70608L21.7373 1.32322C21.883 1.28219 22.0354 1.27109 22.1855 1.29059C22.3355 1.3101 22.48 1.3598 22.6103 1.4367C22.7406 1.5136 22.854 1.6161 22.9436 1.73802C23.0332 1.85995 23.0972 1.99876 23.1316 2.14608L23.7716 4.70608" stroke="#990F02" stroke-width="1.5" stroke-linecap="round" stroke-linejoin="round"/>
<path d="M29.7146 17.2773H24.0003C23.3691 17.2773 22.8574 17.789 22.8574 18.4202V21.8488C22.8574 22.48 23.3691 22.9916 24.0003 22.9916H29.7146C30.3457 22.9916 30.8574 22.48 30.8574 21.8488V18.4202C30.8574 17.789 30.3457 17.2773 29.7146 17.2773Z" stroke="#990F02" stroke-width="1.5" stroke-linecap="round" stroke-linejoin="round"/>
</g>
<defs>
<clipPath id="clip0_103_31139">
<rect width="32" height="32" fill="white" transform="translate(0 0.134766)"/>
</clipPath>
</defs>
</svg>
