<svg width="18" height="33" viewBox="0 0 18 33" fill="none" xmlns="http://www.w3.org/2000/svg">
<path d="M0.42286 32.1347C0.312451 32.1293 0.208001 32.083 0.129837 32.0048C0.0516729 31.9267 0.0053953 31.8222 0 31.7118V17.5079C0 13.0166 3.28056 11.4364 5.01655 11.2316C5.35605 11.1756 5.66584 11.0042 5.89369 10.7463C6.12154 10.4885 6.25351 10.1599 6.26735 9.81611V8.57866H7.11309V9.82946C7.09113 10.3659 6.88685 10.8788 6.53399 11.2835C6.18114 11.6881 5.70081 11.9603 5.17235 12.0551C4.96314 12.0818 0.845734 12.6338 0.845734 17.499V31.2978H16.5141V17.499C16.5141 12.6338 12.3923 12.0818 12.2142 12.0595C11.6802 11.9718 11.1927 11.7025 10.8343 11.297C10.4758 10.8915 10.2683 10.3747 10.2468 9.83392V8.57422H11.0925V9.82502C11.1073 10.1617 11.236 10.4835 11.4576 10.7374C11.6792 10.9914 11.9805 11.1625 12.3122 11.2227C14.0927 11.4319 17.3599 13.0032 17.3599 17.5034V31.7074C17.3542 31.8215 17.3047 31.9291 17.2219 32.0078C17.139 32.0865 17.029 32.1304 16.9147 32.1302L0.42286 32.1347Z" fill="white"/>
<path d="M6.27637 6.52676V0.557633C6.28176 0.447224 6.32804 0.342774 6.4062 0.26461C6.48437 0.186445 6.58882 0.140161 6.69923 0.134766H10.6608C10.7712 0.140161 10.8757 0.186445 10.9539 0.26461C11.032 0.342774 11.0783 0.447224 11.0837 0.557633V6.52676H6.27637ZM7.1221 5.91248H10.238V0.984956H7.1221V5.91248Z" fill="white"/>
<path d="M3.75665 26.1745C3.64235 26.1747 3.53238 26.1309 3.44951 26.0521C3.36665 25.9734 3.31724 25.8658 3.31152 25.7517V18.8389C3.31724 18.7247 3.36665 18.6171 3.44951 18.5384C3.53238 18.4597 3.64235 18.4159 3.75665 18.416H13.6028C13.7132 18.4214 13.8177 18.4677 13.8958 18.5459C13.974 18.624 14.0203 18.7285 14.0257 18.8389V25.7517C14.0203 25.8621 13.974 25.9665 13.8958 26.0447C13.8177 26.1229 13.7132 26.1691 13.6028 26.1745H3.75665ZM4.17951 25.3288H13.1799V19.2618H4.17951V25.3288Z" fill="white"/>
</svg>
