<svg width="448" height="640" viewBox="0 0 448 640" fill="none" xmlns="http://www.w3.org/2000/svg">
<g opacity="0.05" clip-path="url(#clip0_103_33709)">
<path fill-rule="evenodd" clip-rule="evenodd" d="M358.627 58.9468C395.931 83.5467 373.796 112.577 366.848 128.99C359.9 145.403 342.821 183.892 342.821 183.892C342.821 183.892 394.657 217.334 395.912 250.776C397.186 284.218 372.213 306.294 356.716 311.977C341.219 317.66 327.961 317.332 327.961 317.332C317.154 334.304 298.974 328.428 298.878 328.062L303.452 347.153C303.452 347.153 314.51 351.41 316.884 353.934C319.257 356.457 326.842 377.917 362.872 399.358C384.969 412.515 488.623 448.885 430.514 447.305C385.877 446.111 311.673 467.494 311.673 467.494L335.063 481.999C335.063 481.999 267.421 524.284 232.664 553.295C197.888 582.325 171.352 639.115 171.352 639.115C171.352 639.115 127.737 510.394 104.347 487.047C80.957 463.699 73.3727 462.447 73.3727 462.447L75.2639 449.829C75.2639 449.829 48.0913 451.717 29.1207 451.717C14.2607 451.717 -18.3734 447.71 13.4888 438.174C47.1264 428.099 115.753 407.294 132.716 383.465C134.028 381.616 135.148 373.775 138.93 369.036C141.111 366.301 146.978 365.415 147.055 365.241C147.943 362.776 142.636 359.501 140.667 358.268C131.365 352.45 104.965 351.738 104.347 340.988C103.401 324.248 109.095 321.744 107.512 308.182C107.242 305.89 105.93 305.042 105.351 302.846C104.907 301.17 107.223 298.088 107.107 297.375C106.875 295.853 105.505 295.738 105.158 294.119C104.347 290.286 106.624 289.13 106.142 287.146C104.54 280.404 102.031 279.595 105.447 266.553C105.447 266.553 93.9065 255.187 100.873 247.617C107.821 240.046 112.877 237.831 113.205 233.419C113.514 229.008 104.038 218.586 103.73 214.175C103.421 209.763 104.038 208.819 104.038 208.819C104.038 208.819 53.4564 180.733 47.4545 162.124C39.0789 136.175 134.685 132.785 134.685 132.785L162.05 35.0789C183.993 -43.2285 315.61 30.5712 358.627 58.9468Z" fill="white"/>
<path fill-rule="evenodd" clip-rule="evenodd" d="M342.59 183.006C315.996 160.352 254.819 139.567 219.175 133.19C194.067 128.702 160.14 126.024 135.264 131.938C142.018 131.649 136.904 131.919 143.64 131.437C208.136 126.91 287.839 150.489 342.571 183.006H342.59Z" fill="#121214"/>
<path fill-rule="evenodd" clip-rule="evenodd" d="M335.004 292.811C312.193 228.893 208.52 174.685 142.615 179.212C128.489 180.175 109.885 184.875 104.307 199.728L103.014 205.102C107.839 193.101 113.127 187.9 125.999 184.182C168.63 171.872 239.437 202.752 274.271 226.408C302.467 245.556 318.755 263.086 335.023 292.811H335.004Z" fill="#121214"/>
<path fill-rule="evenodd" clip-rule="evenodd" d="M266.649 237.157C278.749 234.653 289.479 234.306 293.763 248.522C299.553 267.709 283.747 302.866 258.331 292.155L257.559 291.847C258.505 292.771 258.408 292.752 260.029 293.581C284.674 306.025 308.585 260.871 291.93 240.701C284.828 232.11 275.738 233.786 266.629 237.138L266.649 237.157Z" fill="#121214"/>
<path fill-rule="evenodd" clip-rule="evenodd" d="M212.691 336.654C193.2 349.85 168.69 354.05 145.455 354.358C139.241 354.435 134.474 354.03 128.356 353.356C132.1 354.608 131.482 354.589 135.651 355.186C159.485 358.692 194.879 353.876 212.691 336.654Z" fill="#121214"/>
<path fill-rule="evenodd" clip-rule="evenodd" d="M302.738 349.793C300.731 381.309 281.799 406.101 263.022 430.374C218.885 487.394 174.209 535.284 172.858 611.916C172.742 619.024 172.839 626.21 174.132 633.222C170.118 559.21 200.397 514.267 244.263 457.824C266.013 429.853 304.012 386.972 302.738 349.793Z" fill="#121214"/>
<path fill-rule="evenodd" clip-rule="evenodd" d="M146.959 364.375C144.103 408.932 154.659 443.491 165.659 485.583C173.881 517.002 174.344 544.646 177.625 576.142L177.914 578.319C178.204 571.384 177.625 562.657 177.219 555.607C175.174 520.238 172.105 498.836 162.61 464.662C151.803 425.807 148.657 404.925 146.978 364.355L146.959 364.375Z" fill="#121214"/>
<path fill-rule="evenodd" clip-rule="evenodd" d="M299.07 364.395C264.12 388.108 236.639 398.01 198.717 414.249C178.376 422.957 172.567 426.732 162.185 447.672C161.22 449.637 161.316 449.425 160.853 450.889C173.146 432.974 172.278 427.599 193.41 418.718C227.183 404.521 271.782 388.879 299.051 364.414L299.07 364.395Z" fill="#121214"/>
<path fill-rule="evenodd" clip-rule="evenodd" d="M203.195 412.283C176.447 398.317 167.377 392.364 147.982 369.267L146.94 368.111L147.519 369.556C156.878 388.223 183.144 406.928 203.176 412.283H203.195Z" fill="#121214"/>
</g>
<defs>
<clipPath id="clip0_103_33709">
<rect width="448" height="639" fill="white" transform="matrix(-1 0 0 1 448 0.134766)"/>
</clipPath>
</defs>
</svg>
