<svg width="726" height="1036" viewBox="0 0 726 1036" fill="none" xmlns="http://www.w3.org/2000/svg">
<g opacity="0.05" clip-path="url(#clip0_103_26002)">
<path fill-rule="evenodd" clip-rule="evenodd" d="M580.977 95.3364C641.41 135.188 605.55 182.218 594.295 208.806C583.04 235.395 555.372 297.747 555.372 297.747C555.372 297.747 639.346 351.923 641.378 406.099C643.442 460.275 602.986 496.039 577.882 505.245C552.777 514.451 531.298 513.92 531.298 513.92C513.791 541.414 484.34 531.896 484.184 531.303L491.593 562.229C491.593 562.229 509.508 569.126 513.353 573.214C517.198 577.302 529.485 612.067 587.855 646.801C623.652 668.116 791.57 727.035 697.435 724.476C625.121 722.541 504.912 757.182 504.912 757.182L542.804 780.681C542.804 780.681 433.224 849.181 376.918 896.179C320.58 943.208 277.592 1035.21 277.592 1035.21C277.592 1035.21 206.936 826.68 169.044 788.857C131.153 751.034 118.866 749.005 118.866 749.005L121.93 728.564C121.93 728.564 77.9102 731.623 47.1779 731.623C23.1047 731.623 -29.7625 725.132 21.8541 709.684C76.347 693.362 187.521 659.659 215.002 621.055C217.128 618.059 218.941 605.358 225.069 597.681C228.602 593.249 238.106 591.814 238.231 591.533C239.669 587.538 231.072 582.233 227.883 580.236C212.814 570.811 170.045 569.657 169.044 552.243C167.512 525.124 176.735 521.067 174.172 499.097C173.734 495.383 171.608 494.01 170.67 490.452C169.951 487.737 173.703 482.744 173.515 481.59C173.14 479.124 170.92 478.937 170.357 476.316C169.044 470.105 172.733 468.233 171.952 465.018C169.357 454.096 165.293 452.785 170.826 431.658C170.826 431.658 152.131 413.246 163.417 400.981C174.672 388.717 182.863 385.128 183.394 377.981C183.895 370.835 168.544 353.952 168.044 346.805C167.544 339.659 168.544 338.129 168.544 338.129C168.544 338.129 86.6016 292.629 76.8785 262.483C63.31 220.447 218.191 214.954 218.191 214.954L262.523 56.6705C298.07 -70.1873 511.29 49.368 580.977 95.3364Z" fill="#990F02"/>
<path fill-rule="evenodd" clip-rule="evenodd" d="M554.995 296.311C511.914 259.612 412.807 225.939 355.063 215.609C314.389 208.338 259.427 204 219.128 213.581C230.07 213.113 221.785 213.55 232.696 212.769C337.18 205.436 466.3 243.633 554.964 296.311H554.995Z" fill="white"/>
<path fill-rule="evenodd" clip-rule="evenodd" d="M542.71 474.195C505.756 370.649 337.807 282.831 231.041 290.165C208.156 291.725 178.017 299.34 168.982 323.401L166.887 332.108C174.703 312.665 183.27 304.239 204.123 298.216C273.184 278.275 387.891 328.3 444.323 366.623C489.999 397.643 516.386 426.042 542.741 474.195H542.71Z" fill="white"/>
<path fill-rule="evenodd" clip-rule="evenodd" d="M431.972 384.036C451.574 379.979 468.957 379.418 475.897 402.449C485.277 433.531 459.672 490.484 418.497 473.133L417.247 472.634C418.778 474.132 418.622 474.101 421.248 475.443C461.172 495.603 499.908 422.453 472.927 389.778C461.422 375.86 446.697 378.575 431.941 384.005L431.972 384.036Z" fill="white"/>
<path fill-rule="evenodd" clip-rule="evenodd" d="M344.56 545.221C312.983 566.598 273.278 573.401 235.636 573.9C225.569 574.025 217.847 573.37 207.937 572.277C214.002 574.306 213.001 574.275 219.754 575.242C258.365 580.922 315.703 573.12 344.56 545.221Z" fill="white"/>
<path fill-rule="evenodd" clip-rule="evenodd" d="M490.436 566.506C487.184 617.561 456.514 657.725 426.095 697.046C354.594 789.42 282.219 867.001 280.03 991.144C279.842 1002.66 279.999 1014.3 282.093 1025.66C275.591 905.761 324.644 832.954 395.706 741.517C430.941 696.204 492.499 626.736 490.436 566.506Z" fill="white"/>
<path fill-rule="evenodd" clip-rule="evenodd" d="M238.076 590.129C233.449 662.311 250.55 718.297 268.371 786.485C281.689 837.385 282.439 882.167 287.754 933.191L288.223 936.717C288.692 925.483 287.754 911.346 287.098 899.924C283.784 842.627 278.813 807.956 263.431 752.594C245.923 689.649 240.827 655.82 238.107 590.098L238.076 590.129Z" fill="white"/>
<path fill-rule="evenodd" clip-rule="evenodd" d="M484.497 590.16C427.878 628.576 383.359 644.617 321.925 670.925C288.973 685.03 279.563 691.147 262.743 725.069C261.179 728.253 261.336 727.909 260.585 730.281C280.501 701.258 279.094 692.551 313.328 678.165C368.039 655.165 440.29 629.825 484.466 590.191L484.497 590.16Z" fill="white"/>
<path fill-rule="evenodd" clip-rule="evenodd" d="M329.178 667.742C285.846 645.117 271.152 635.474 239.732 598.056L238.044 596.184L238.982 598.524C254.145 628.764 296.695 659.066 329.146 667.742H329.178Z" fill="white"/>
</g>
<defs>
<clipPath id="clip0_103_26002">
<rect width="725.759" height="1035.18" fill="white" transform="matrix(-1 0 0 1 725.759 0.0605469)"/>
</clipPath>
</defs>
</svg>
