<svg width="448" height="640" viewBox="0 0 448 640" fill="none" xmlns="http://www.w3.org/2000/svg">
<g opacity="0.05" clip-path="url(#clip0_103_24791)">
<path fill-rule="evenodd" clip-rule="evenodd" d="M89.3723 58.9624C52.0679 83.5623 74.2035 112.593 81.151 129.006C88.0986 145.418 105.178 183.908 105.178 183.908C105.178 183.908 53.3416 217.35 52.0872 250.792C50.8135 284.233 75.786 306.31 91.2829 311.993C106.78 317.675 120.038 317.348 120.038 317.348C130.845 334.319 149.025 328.444 149.121 328.078L144.547 347.168C144.547 347.168 133.489 351.426 131.115 353.949C128.742 356.473 121.157 377.933 85.1266 399.373C63.0296 412.531 -40.6238 448.901 17.4846 447.321C62.1225 446.127 136.326 467.509 136.326 467.509L112.936 482.015C112.936 482.015 180.578 524.299 215.335 553.31C250.111 582.341 276.647 639.131 276.647 639.131C276.647 639.131 320.262 510.41 343.652 487.062C367.042 463.714 374.626 462.462 374.626 462.462L372.735 449.845C372.735 449.845 399.908 451.732 418.878 451.732C433.738 451.732 466.372 447.725 434.51 438.19C400.873 428.115 332.246 407.31 315.283 383.481C313.971 381.631 312.851 373.791 309.069 369.052C306.888 366.317 301.021 365.43 300.944 365.257C300.056 362.791 305.363 359.516 307.332 358.284C316.634 352.466 343.034 351.753 343.652 341.004C344.598 324.264 338.904 321.759 340.487 308.198C340.757 305.905 342.069 305.058 342.648 302.862C343.092 301.186 340.776 298.103 340.892 297.391C341.124 295.869 342.494 295.753 342.841 294.135C343.652 290.302 341.375 289.146 341.857 287.162C343.459 280.419 345.968 279.61 342.552 266.569C342.552 266.569 354.093 255.203 347.126 247.632C340.178 240.062 335.122 237.846 334.794 233.435C334.485 229.023 343.961 218.602 344.27 214.19C344.578 209.779 343.961 208.835 343.961 208.835C343.961 208.835 394.543 180.748 400.545 162.139C408.92 136.191 313.314 132.801 313.314 132.801L285.949 35.0946C264.006 -43.2129 132.389 30.5868 89.3723 58.9624Z" fill="white"/>
<path fill-rule="evenodd" clip-rule="evenodd" d="M105.41 183.022C132.004 160.368 193.181 139.582 228.825 133.206C253.933 128.717 287.86 126.04 312.736 131.954C305.982 131.665 311.096 131.934 304.36 131.453C239.864 126.926 160.161 150.505 105.429 183.022H105.41Z" fill="#121214"/>
<path fill-rule="evenodd" clip-rule="evenodd" d="M112.994 292.826C135.805 228.909 239.478 174.7 305.383 179.227C319.509 180.191 338.113 184.891 343.691 199.743L344.984 205.118C340.159 193.117 334.871 187.915 321.999 184.198C279.368 171.888 208.561 202.768 173.727 226.424C145.532 245.572 129.243 263.102 112.975 292.826H112.994Z" fill="#121214"/>
<path fill-rule="evenodd" clip-rule="evenodd" d="M181.35 237.172C169.25 234.668 158.52 234.321 154.236 248.538C148.446 267.725 164.252 302.881 189.668 292.171L190.44 291.862C189.494 292.787 189.591 292.768 187.97 293.596C163.325 306.041 139.414 260.886 156.069 240.717C163.171 232.125 172.261 233.801 181.37 237.153L181.35 237.172Z" fill="#121214"/>
<path fill-rule="evenodd" clip-rule="evenodd" d="M235.309 336.67C254.8 349.866 279.31 354.065 302.545 354.373C308.759 354.45 313.526 354.046 319.644 353.372C315.9 354.624 316.518 354.605 312.349 355.202C288.515 358.708 253.121 353.892 235.309 336.67Z" fill="#121214"/>
<path fill-rule="evenodd" clip-rule="evenodd" d="M145.262 349.809C147.269 381.324 166.201 406.117 184.978 430.389C229.115 487.41 273.791 535.3 275.142 611.931C275.258 619.04 275.161 626.225 273.868 633.237C277.882 559.226 247.603 514.283 203.737 457.84C181.987 429.869 143.988 386.988 145.262 349.809Z" fill="#121214"/>
<path fill-rule="evenodd" clip-rule="evenodd" d="M301.04 364.39C303.896 408.948 293.34 443.507 282.34 485.598C274.118 517.018 273.655 544.661 270.374 576.158L270.085 578.334C269.795 571.399 270.374 562.673 270.78 555.622C272.825 520.254 275.894 498.852 285.389 464.678C296.196 425.823 299.342 404.941 301.021 364.371L301.04 364.39Z" fill="#121214"/>
<path fill-rule="evenodd" clip-rule="evenodd" d="M148.928 364.41C183.878 388.124 211.359 398.026 249.281 414.265C269.622 422.972 275.431 426.748 285.813 447.688C286.778 449.653 286.682 449.441 287.145 450.905C274.852 432.989 275.72 427.615 254.588 418.734C220.815 404.537 176.216 388.894 148.947 364.429L148.928 364.41Z" fill="#121214"/>
<path fill-rule="evenodd" clip-rule="evenodd" d="M244.804 412.299C271.552 398.333 280.622 392.38 300.017 369.283L301.059 368.127L300.48 369.572C291.121 388.238 264.855 406.944 244.823 412.299H244.804Z" fill="#121214"/>
</g>
<defs>
<clipPath id="clip0_103_24791">
<rect width="448" height="639" fill="white" transform="translate(0 0.150391)"/>
</clipPath>
</defs>
</svg>
