<svg width="316" height="451" viewBox="0 0 316 451" fill="none" xmlns="http://www.w3.org/2000/svg">
<g opacity="0.05" clip-path="url(#clip0_103_33441)">
<path fill-rule="evenodd" clip-rule="evenodd" d="M63.04 41.5513C36.727 58.8751 52.3406 79.3192 57.241 90.8775C62.1415 102.436 74.1886 129.541 74.1886 129.541C74.1886 129.541 37.6255 153.091 36.7407 176.642C35.8422 200.193 53.4568 215.74 64.3876 219.742C75.3184 223.744 84.6702 223.513 84.6702 223.513C92.2932 235.465 105.116 231.327 105.184 231.069L101.958 244.513C101.958 244.513 94.1581 247.511 92.4837 249.288C90.8094 251.066 85.4597 266.178 60.0452 281.277C44.4589 290.543 -28.6537 316.156 12.3335 315.043C43.8191 314.202 96.1591 329.26 96.1591 329.26L79.6608 339.476C79.6608 339.476 127.373 369.253 151.889 389.684C176.418 410.128 195.135 450.121 195.135 450.121C195.135 450.121 225.9 359.472 242.398 343.03C258.896 326.588 264.246 325.706 264.246 325.706L262.912 316.82C262.912 316.82 282.078 318.15 295.459 318.15C305.941 318.15 328.96 315.328 306.485 308.613C282.759 301.518 234.353 286.866 222.388 270.085C221.462 268.783 220.672 263.261 218.004 259.924C216.466 257.998 212.328 257.374 212.274 257.252C211.647 255.515 215.391 253.209 216.779 252.341C223.34 248.244 241.962 247.742 242.398 240.172C243.065 228.383 239.049 226.62 240.165 217.069C240.356 215.455 241.282 214.858 241.69 213.311C242.003 212.131 240.37 209.96 240.451 209.458C240.615 208.387 241.581 208.305 241.826 207.166C242.398 204.466 240.792 203.652 241.132 202.255C242.262 197.507 244.031 196.937 241.622 187.753C241.622 187.753 249.762 179.749 244.848 174.417C239.948 169.086 236.381 167.526 236.15 164.419C235.932 161.312 242.616 153.973 242.834 150.867C243.051 147.76 242.616 147.095 242.616 147.095C242.616 147.095 278.294 127.316 282.528 114.211C288.435 95.9376 220.999 93.55 220.999 93.55L201.697 24.7429C186.219 -30.4032 93.3822 21.5684 63.04 41.5513Z" fill="white"/>
<path fill-rule="evenodd" clip-rule="evenodd" d="M74.3516 128.917C93.1096 112.963 136.261 98.3255 161.403 93.8351C179.113 90.6742 203.044 88.7885 220.59 92.9533C215.826 92.7498 219.433 92.9397 214.683 92.6006C169.19 89.4126 112.97 106.017 74.3652 128.917H74.3516Z" fill="#121214"/>
<path fill-rule="evenodd" clip-rule="evenodd" d="M79.7011 206.244C95.7911 161.232 168.917 123.057 215.404 126.245C225.368 126.923 238.491 130.233 242.425 140.693L243.337 144.478C239.934 136.026 236.204 132.363 227.124 129.745C197.054 121.076 147.11 142.823 122.54 159.482C102.652 172.966 91.1628 185.312 79.6875 206.244H79.7011Z" fill="#121214"/>
<path fill-rule="evenodd" clip-rule="evenodd" d="M127.917 167.052C119.382 165.288 111.813 165.044 108.791 175.056C104.708 188.568 115.856 213.326 133.784 205.783L134.328 205.566C133.661 206.217 133.729 206.204 132.586 206.787C115.203 215.551 98.3371 183.752 110.085 169.548C115.094 163.498 121.505 164.678 127.931 167.038L127.917 167.052Z" fill="#121214"/>
<path fill-rule="evenodd" clip-rule="evenodd" d="M165.977 237.121C179.725 246.414 197.013 249.371 213.402 249.588C217.786 249.643 221.148 249.358 225.463 248.883C222.822 249.765 223.258 249.751 220.318 250.172C203.506 252.641 178.541 249.249 165.977 237.121Z" fill="#121214"/>
<path fill-rule="evenodd" clip-rule="evenodd" d="M102.461 246.373C103.877 268.567 117.231 286.027 130.476 303.12C161.608 343.275 193.121 377.001 194.073 430.967C194.155 435.972 194.087 441.033 193.175 445.971C196.006 393.85 174.648 362.2 143.707 322.452C128.366 302.754 101.563 272.556 102.461 246.373Z" fill="#121214"/>
<path fill-rule="evenodd" clip-rule="evenodd" d="M212.341 256.642C214.355 288.021 206.909 312.358 199.15 342C193.351 364.126 193.025 383.594 190.71 405.774L190.506 407.307C190.302 402.423 190.71 396.278 190.996 391.313C192.439 366.406 194.604 351.334 201.301 327.267C208.924 299.905 211.143 285.199 212.327 256.629L212.341 256.642Z" fill="#121214"/>
<path fill-rule="evenodd" clip-rule="evenodd" d="M105.047 256.656C129.699 273.356 149.083 280.329 175.832 291.765C190.179 297.897 194.277 300.556 201.6 315.302C202.281 316.686 202.213 316.537 202.539 317.568C193.868 304.951 194.481 301.167 179.575 294.913C155.753 284.914 124.295 273.899 105.06 256.67L105.047 256.656Z" fill="#121214"/>
<path fill-rule="evenodd" clip-rule="evenodd" d="M172.674 290.38C191.541 280.545 197.939 276.353 211.619 260.087L212.354 259.273L211.946 260.291C205.344 273.436 186.817 286.609 172.687 290.38H172.674Z" fill="#121214"/>
</g>
<defs>
<clipPath id="clip0_103_33441">
<rect width="316" height="450" fill="white" transform="translate(0 0.134766)"/>
</clipPath>
</defs>
</svg>
