<svg width="24" height="25" viewBox="0 0 24 25" fill="none" xmlns="http://www.w3.org/2000/svg">
<g clip-path="url(#clip0_103_23557)">
<path d="M22.0799 21.3753C22.1069 21.6158 22.0826 21.8593 22.0088 22.0898C21.9349 22.3203 21.8131 22.5325 21.6513 22.7125C21.4891 22.8922 21.2907 23.0355 21.0691 23.1331C20.8474 23.2306 20.6077 23.28 20.3656 23.2782H3.63416C3.39206 23.28 3.15231 23.2306 2.93071 23.1331C2.7091 23.0355 2.51066 22.8922 2.34845 22.7125C2.18668 22.5325 2.06485 22.3203 1.99098 22.0898C1.91711 21.8593 1.89288 21.6158 1.91988 21.3753L3.42845 7.84961H20.5713L22.0799 21.3753Z" stroke="#121214" stroke-linecap="round" stroke-linejoin="round"/>
<path d="M7.71387 7.84933V5.2779C7.71387 4.14126 8.1654 3.05117 8.96912 2.24744C9.77285 1.44372 10.8629 0.992188 11.9996 0.992188C13.1362 0.992188 14.2263 1.44372 15.03 2.24744C15.8338 3.05117 16.2853 4.14126 16.2853 5.2779V7.84933" stroke="#121214" stroke-linecap="round" stroke-linejoin="round"/>
</g>
<defs>
<clipPath id="clip0_103_23557">
<rect width="24" height="24" fill="white" transform="translate(0 0.134766)"/>
</clipPath>
</defs>
</svg>
