<svg width="25" height="25" viewBox="0 0 25 25" fill="none" xmlns="http://www.w3.org/2000/svg">
<g clip-path="url(#clip0_103_46622)">
<path d="M22.5799 21.3753C22.6069 21.6158 22.5826 21.8593 22.5088 22.0898C22.4349 22.3203 22.3131 22.5325 22.1513 22.7125C21.9891 22.8922 21.7907 23.0355 21.5691 23.1331C21.3474 23.2306 21.1077 23.28 20.8656 23.2782H4.13416C3.89206 23.28 3.65231 23.2306 3.43071 23.1331C3.2091 23.0355 3.01066 22.8922 2.84845 22.7125C2.68668 22.5325 2.56485 22.3203 2.49098 22.0898C2.41711 21.8593 2.39288 21.6158 2.41988 21.3753L3.92845 7.84961H21.0713L22.5799 21.3753Z" stroke="white" stroke-linecap="round" stroke-linejoin="round"/>
<path d="M8.21387 7.84933V5.2779C8.21387 4.14126 8.6654 3.05117 9.46912 2.24744C10.2729 1.44372 11.3629 0.992188 12.4996 0.992188C13.6362 0.992188 14.7263 1.44372 15.53 2.24744C16.3338 3.05117 16.7853 4.14126 16.7853 5.2779V7.84933" stroke="white" stroke-linecap="round" stroke-linejoin="round"/>
</g>
<defs>
<clipPath id="clip0_103_46622">
<rect width="24" height="24" fill="white" transform="translate(0.5 0.134766)"/>
</clipPath>
</defs>
</svg>
