<svg width="32" height="33" viewBox="0 0 32 33" fill="none" xmlns="http://www.w3.org/2000/svg">
<path d="M30.8569 10.4361V25.2932C30.8569 26.051 30.5558 26.7777 30.02 27.3136C29.4842 27.8494 28.7575 28.1504 27.9997 28.1504C27.242 28.1504 26.5152 27.8494 25.9794 27.3136C25.4436 26.7777 25.1426 26.051 25.1426 25.2932V5.29325C25.1426 4.99014 25.0222 4.69945 24.8078 4.48513C24.5935 4.2708 24.3028 4.15039 23.9997 4.15039H2.28544C1.98233 4.15039 1.69164 4.2708 1.47731 4.48513C1.26299 4.69945 1.14258 4.99014 1.14258 5.29325V25.8647C1.14258 26.4709 1.38339 27.0523 1.81205 27.4809C2.2407 27.9096 2.82208 28.1504 3.42829 28.1504H27.9997" stroke="#990F02" stroke-linecap="round" stroke-linejoin="round"/>
<path d="M18.2857 9.86523H8V15.5795H18.2857V9.86523Z" stroke="#990F02" stroke-linecap="round" stroke-linejoin="round"/>
<path d="M8 22.4355H18.2857" stroke="#990F02" stroke-linecap="round" stroke-linejoin="round"/>
</svg>
