<svg width="25" height="33" viewBox="0 0 25 33" fill="none" xmlns="http://www.w3.org/2000/svg">
<path d="M6.08739 32.1076C6.01965 32.1076 5.95258 32.0943 5.89 32.0684C5.82742 32.0424 5.77057 32.0045 5.72267 31.9566C5.67478 31.9087 5.63679 31.8518 5.61087 31.7892C5.58495 31.7267 5.5716 31.6596 5.5716 31.5919C5.5716 31.5241 5.58495 31.457 5.61087 31.3945C5.63679 31.3319 5.67478 31.275 5.72267 31.2271C5.77057 31.1792 5.82742 31.1413 5.89 31.1153C5.95258 31.0894 6.01965 31.0761 6.08739 31.0761H11.9564V24.6424L11.5546 24.6098C10.6824 24.5472 9.81853 24.398 8.97575 24.1646H8.94318H8.86716L8.79658 24.1375C8.36066 24.0093 7.9328 23.8552 7.51528 23.676L7.10809 23.4643C0.169506 20.3859 0.00661883 16.1348 0.00661883 15.6624C-0.183405 8.5284 3.77995 0.742844 3.94826 0.417089C3.99059 0.332341 4.05567 0.26105 4.13622 0.211189C4.21676 0.161327 4.30959 0.13487 4.40431 0.134774H20.5563C20.6512 0.134238 20.7443 0.160428 20.8249 0.21036C20.9056 0.260292 20.9706 0.331941 21.0124 0.417089C21.1861 0.742844 25.1441 8.50668 24.954 15.6461C24.954 16.1511 24.7857 20.5325 17.5431 23.6054L17.1359 23.7792C16.9459 23.8552 16.7504 23.9257 16.5278 24.0018L16.3921 24.0506L16.0338 24.1863H15.9252H15.8492C15.0471 24.4091 14.2252 24.5527 13.3952 24.6153L12.9934 24.6424V31.0761H18.8624C18.944 31.0493 19.0307 31.0422 19.1155 31.0554C19.2003 31.0686 19.2808 31.1017 19.3503 31.1521C19.4198 31.2024 19.4765 31.2685 19.5155 31.345C19.5545 31.4214 19.5749 31.506 19.5749 31.5919C19.5749 31.6777 19.5545 31.7623 19.5155 31.8387C19.4765 31.9152 19.4198 31.9813 19.3503 32.0316C19.2808 32.082 19.2003 32.1151 19.1155 32.1283C19.0307 32.1415 18.944 32.1344 18.8624 32.1076H6.08739ZM1.41281 11.0801C1.13055 12.5706 1.00138 14.086 1.02732 15.6027C1.02732 15.8362 1.08704 20.185 8.9486 23.0679C10.1027 23.4227 11.3028 23.6056 12.5102 23.6108C13.7411 23.6131 14.9642 23.4151 16.1315 23.0245C24.0419 20.0656 23.917 15.6841 23.9116 15.6407C23.939 14.1132 23.8098 12.5868 23.5261 11.0856L23.461 10.7272H20.0569L21.6422 13.6373C21.701 13.7588 21.7125 13.8979 21.6743 14.0274C21.6362 14.1569 21.5512 14.2675 21.4359 14.3377L16.0718 17.2586C15.9976 17.3017 15.9132 17.3241 15.8275 17.3238C15.7346 17.3213 15.6439 17.2951 15.564 17.2476C15.4842 17.2 15.4178 17.1328 15.3714 17.0523L14.6656 15.7547L14.1498 20.2936C14.1325 20.4292 14.0646 20.5533 13.9598 20.641C13.8665 20.7135 13.7521 20.7535 13.634 20.7551H13.5743L7.50985 20.0655C7.37657 20.0442 7.25601 19.974 7.17169 19.8686C7.08738 19.7632 7.04535 19.6302 7.05379 19.4955L7.7433 13.4256C7.76289 13.3034 7.82364 13.1916 7.91547 13.1086C8.00729 13.0257 8.1247 12.9766 8.24823 12.9695H8.31338L13.4657 13.5559L12.4505 11.6991C12.3862 11.5772 12.3707 11.4356 12.407 11.3027C12.4493 11.1737 12.5384 11.0653 12.6568 10.9987L18.0209 8.07233C18.0951 8.02932 18.1794 8.00683 18.2652 8.00719C18.3139 8.00194 18.3631 8.00194 18.4118 8.00719C18.5428 8.0483 18.6534 8.13754 18.7212 8.25693L19.4922 9.67939H23.2492L23.1135 9.13646C22.4383 6.46497 21.5112 3.86356 20.3446 1.36721L20.2252 1.11747H4.73007L4.61606 1.36721C3.44687 3.86307 2.51789 6.46455 1.84171 9.13646L1.71141 9.67939H10.3982C10.168 9.9849 9.99341 10.3286 9.88243 10.6947H1.49424L1.41281 11.0801ZM8.13964 19.0883L13.1834 19.6584L13.7589 14.6146L8.70971 14.0445L8.13964 19.0883ZM13.6015 11.6448L16.0338 16.1022L20.4912 13.6753L18.0589 9.21248L13.6015 11.6448Z" fill="#990F02"/>
</svg>
