<svg width="32" height="33" viewBox="0 0 32 33" fill="none" xmlns="http://www.w3.org/2000/svg">
<g clip-path="url(#clip0_103_33699)">
<path d="M12.5731 28.7069C13.2048 28.1247 13.7089 27.4179 14.0537 26.6311C14.3986 25.8442 14.5766 24.9945 14.5766 24.1355C14.5766 23.2764 14.3986 22.4267 14.0537 21.6399C13.7089 20.8531 13.2048 20.1463 12.5731 19.564C11.9909 18.9324 11.2841 18.4282 10.4973 18.0834C9.71046 17.7386 8.86073 17.5605 8.00167 17.5605C7.14262 17.5605 6.29289 17.7386 5.50608 18.0834C4.71928 18.4282 4.01247 18.9324 3.43025 19.564C1.14453 21.8497 1.14453 30.9926 1.14453 30.9926C1.14453 30.9926 10.2874 30.9926 12.5731 28.7069Z" stroke="white" stroke-linecap="round" stroke-linejoin="round"/>
<path d="M29.5326 2.60347C28.7408 1.82174 27.6911 1.35564 26.5802 1.29252C25.4694 1.2294 24.3736 1.57361 23.4983 2.26061L10.2869 11.5635L8.66406 17.5978C10.1535 17.7864 11.5331 18.4803 12.5726 19.5635C13.6558 20.603 14.3497 21.9826 14.5383 23.472L20.5726 21.8492L29.8755 8.63775C30.5625 7.7625 30.9067 6.66674 30.8436 5.55586C30.7805 4.44499 30.3144 3.39526 29.5326 2.60347V2.60347Z" stroke="white" stroke-linecap="round" stroke-linejoin="round"/>
<path d="M1.14453 30.9911L8.5731 23.5625" stroke="white" stroke-linecap="round" stroke-linejoin="round"/>
</g>
<defs>
<clipPath id="clip0_103_33699">
<rect width="32" height="32" fill="white" transform="translate(0 0.134766)"/>
</clipPath>
</defs>
</svg>
